<?xml version="1.0" encoding="UTF-8"?>
<svg width="97px" height="99px" viewBox="0 0 97 99" version="1.1" xmlns="http://www.w3.org/2000/svg" xmlns:xlink="http://www.w3.org/1999/xlink">
    <!-- Generator: Sketch 43.2 (39069) - http://www.bohemiancoding.com/sketch -->
    <title>Group 6</title>
    <desc>Created with Sketch.</desc>
    <defs></defs>
    <g id="Page-1" stroke="none" stroke-width="1" fill="none" fill-rule="evenodd">
        <g id="Artboard-Copy" transform="translate(-362.000000, -203.000000)" fill-rule="nonzero" fill="#FFFFFF">
            <g id="Group-3" transform="translate(239.000000, 119.000000)">
                <g id="Group" transform="translate(80.000000, 84.000000)">
                    <g id="Group-5">
                        <g id="Group-6" transform="translate(43.000000, 0.000000)">
                            <path d="M51.0982278,0 C79.617394,0 97,19.0736241 97,42.6034269 C97,66.1314951 79.617394,84.9483989 51.0982278,84.9483989 C47.6223124,84.9483989 44.2266687,83.7966268 40.9446171,83.2571673 C27.6679834,102.479967 6.72919041,98.6985461 6.72919041,98.6985461 C21.5188695,90.6812407 21.2189867,77.4029038 18.5897104,75.6336152 C6.98060739,67.8227268 0,55.9251287 0,42.6016923 C0,19.0736241 22.5790616,0 51.0982278,0 Z M37.25,42.45 L37.25,46.1 L41.65,46.1 L41.65,42.45 L37.25,42.45 Z M57.45,42.45 L57.45,46.1 L61.85,46.1 L61.85,42.45 L57.45,42.45 Z M27.7,54.05 L27.7,56.6 C29.500009,57.93334 31.2916578,59.133328 33.075,60.2 C34.8583423,61.266672 36.683324,62.166663 38.55,62.9 C40.416676,63.633337 42.3583233,64.1916648 44.375,64.575 C46.3916768,64.9583353 48.5499885,65.15 50.85,65.15 C53.2166785,65.15 55.4083233,64.9583353 57.425,64.575 C59.4416768,64.1916648 61.3749908,63.6416703 63.225,62.925 C65.0750093,62.2083298 66.8916578,61.316672 68.675,60.25 C70.4583423,59.183328 72.2999905,57.9666735 74.2,56.6 L74.2,54.05 C70.7666495,56.3500115 67.1000195,58.199993 63.2,59.6 C59.2999805,61.000007 55.2666875,61.7 51.1,61.7 C46.8666455,61.7 42.7750198,61.0250068 38.825,59.675 C34.8749803,58.3249933 31.166684,56.450012 27.7,54.05 Z" id="Combined-Shape"></path>
                        </g>
                    </g>
                </g>
            </g>
        </g>
    </g>
</svg>